<svg xmlns="http://www.w3.org/2000/svg" viewBox="424 495 1060 90" role="img" aria-label="RPM Móviles">
  <path transform="matrix(1,0,0,-1,558.8757,534.7508)" d="M0 0H27.678C36.387 0 41.397 4.056 41.397 11.334 41.397 16.821 38.534 19.327 30.66 19.327H3.102ZM38.176-14.912 55.117-45.811H34.478L18.253-15.986H-2.505L-7.277-45.811H-25.888L-13.004 35.313H34.597C51.299 35.313 60.485 28.393 60.485 13.004 60.485-1.551 52.373-11.692 38.176-14.912" fill="#ffffff"/>
  <path transform="matrix(1,0,0,-1,694.2743,524.1331)" d="M0 0C0 5.965-3.102 8.709-11.93 8.709H-36.864L-40.323-12.765H-15.27C-5.13-12.765 0-7.635 0 0M19.208 1.551C19.208-17.06 6.442-28.751-14.912-28.751H-42.829L-47.243-56.429H-65.854L-52.969 24.695H-7.874C9.663 24.695 19.208 17.537 19.208 1.551" fill="#ffffff"/>
  <path transform="matrix(1,0,0,-1,820.3691,580.56216)" d="M0 0H-18.611L-9.186 59.173-44.141 0H-57.026L-73.251 59.173-82.675 0H-100.451L-87.567 81.124H-62.633L-47.243 25.172-14.197 81.124H12.884Z" fill="#ffffff"/>
  <path transform="matrix(1,0,0,-1,976.8796,580.56216)" d="M0 0H-18.611L-9.186 59.173-44.141 0H-57.026L-73.251 59.173-82.675 0H-100.451L-87.567 81.124H-62.633L-47.243 25.172-14.197 81.124H12.884Z" fill="#c1272d"/>
  <path transform="matrix(1,0,0,-1,1069.9257,535.7052)" d="M0 0C0 13.123-8.47 21.236-21.951 21.236-39.489 21.236-52.134 7.516-52.134-8.59-52.134-21.713-43.664-29.825-30.183-29.825-12.646-29.825 0-16.106 0 0M-71.103-9.663C-71.103 17.299-49.629 37.699-20.401 37.699 3.698 37.699 18.969 23.86 18.969 1.074 18.969-25.888-2.505-46.289-31.734-46.289-55.833-46.289-71.103-32.45-71.103-9.663" fill="#c1272d"/>
  <path transform="matrix(1,0,0,-1,1185.9984,499.43794)" d="M0 0-47.123-81.124H-66.211L-87.566 0H-68.359L-53.685-59.65-20.52 0Z" fill="#c1272d"/>
  <path transform="matrix(1,0,0,-1,1199.5922,499.43794)" d="M0 0H18.611L5.726-81.124H-12.885Z" fill="#c1272d"/>
  <path transform="matrix(1,0,0,-1,1299.0848,564.5759)" d="M0 0-2.505-15.986H-73.489L-60.604 65.138H-41.994L-52.373 0Z" fill="#c1272d"/>
  <path transform="matrix(1,0,0,-1,1339.9984,515.4241)" d="M0 0-2.625-16.344H44.38L41.755-32.33H-5.13L-7.874-49.152H46.885L44.38-65.138H-28.99L-16.105 15.986H57.264L54.64 0Z" fill="#c1272d"/>
  <path transform="matrix(1,0,0,-1,1396.6607,570.30239)" d="M0 0 9.186 14.078C18.492 7.397 28.751 4.176 41.517 4.176 55.236 4.176 62.514 7.874 62.514 14.078 62.514 19.565 57.622 20.162 43.545 21.951 22.309 24.576 10.618 27.678 10.618 43.783 10.618 63.826 28.513 72.296 50.583 72.296 64.899 72.296 75.994 68.717 84.584 62.275L76.114 48.675C68.956 53.924 60.485 56.429 50.225 56.429 37.938 56.429 29.944 52.85 29.944 46.05 29.944 41.517 33.643 40.801 48.794 38.892 72.177 35.91 81.84 32.33 81.84 16.941 81.84-3.579 64.541-11.691 40.323-11.691 23.144-11.691 10.498-7.635 0 0" fill="#c1272d"/>
  <path transform="matrix(1,0,0,-1,443.2975,498.013)" d="M0 0H87.064L69.753-83.98H-16.293Z" fill="#c1272d"/>
  <path transform="matrix(1,0,0,-1,507.4257,550.7405)" d="M0 0-15.315 15.309-10.28 20.342 5.023 5.04ZM-10.869-13.456C-11.352-14.014-12.689-14.442-13.342-13.794L-19.449-7.737C-19.753-7.436-20.601-7.526-20.879-7.761-21.235-8.063-21.346-8.837-20.954-9.234L-16.318-13.909C-15.546-14.688-15.901-15.944-16.508-16.542-17.227-17.25-18.446-17.403-19.223-16.63L-23.697-12.171C-24.114-11.754-24.721-11.758-25.154-12.071-25.508-12.326-25.671-13.182-25.245-13.618L-21.333-17.617C-20.649-18.317-21.138-19.687-21.756-20.16-22.555-20.771-23.62-20.811-24.368-20.069L-28.191-16.283C-28.429-16.047-29.188-16.158-29.45-16.331-29.712-16.503-29.964-17.428-29.746-17.653L-26.663-20.826C-25.875-21.635-26.092-22.88-26.79-23.542-27.503-24.217-28.787-24.323-29.571-23.549L-33.126-20.038-31.709-18.517C-30.616-17.343-30.676-15.517-31.369-14.124-32.048-12.762-33.502-11.968-35.205-11.974-35.128-9.422-37.1-7.536-39.562-7.723-39.374-5.262-41.259-3.291-43.81-3.367-43.811-1.718-44.548-.296-45.838 .401-47.214 1.144-48.944 1.171-50.251 .21L-51.854-1.287-53.833 .682-43.13 11.388-40.65 8.955-37.485 8.871-40.975 5.377C-41.256 5.097-41.568 4.197-41.273 3.881-38.559 .971-34.111 .695-31.06 3.262L-27.838 6.375-16.732-4.81-10.704-10.957C-10.005-11.67-10.316-12.82-10.869-13.456M-37.41-21.272C-38.304-21.842-39.34-21.63-39.965-20.953-40.591-20.273-40.706-19.263-40.14-18.438L-36.238-14.555C-35.502-13.823-34.289-13.979-33.618-14.608-32.981-15.205-32.663-16.485-33.381-17.21ZM-41.62-16.867C-42.39-17.638-43.673-17.296-44.26-16.679-44.876-16.032-45.081-14.721-44.37-14.01L-40.582-10.224C-39.864-9.505-38.564-9.713-37.908-10.331-37.297-10.908-36.958-12.196-37.683-12.922ZM-48.431-12.5C-49.102-11.958-49.499-10.584-48.747-9.833L-44.759-5.845C-44.035-5.121-42.748-5.458-42.168-6.07-41.554-6.719-41.346-8.025-42.06-8.744L-45.594-12.31C-46.415-13.138-47.611-13.161-48.431-12.5M-50.139-8.153C-50.894-8.909-52.018-8.769-52.684-8.222-53.453-7.591-53.676-6.539-53.153-5.619L-49.049-1.543C-48.326-.825-47.039-1.146-46.446-1.779-45.817-2.45-45.657-3.666-46.391-4.401ZM-57.574-.172-62.509 4.769-47.205 20.074-42.263 15.137ZM7.238 5.864-9.451 22.549C-9.865 22.963-10.681 22.941-11.053 22.569L-17.425 16.204C-17.934 15.695-17.935 14.919-17.434 14.42L-15.939 12.931-17.371 11.525-21.23 15.353-24.992 15.366C-25.613 15.368-26.177 14.884-26.18 14.366-26.184 13.664-25.695 13.255-24.997 13.258L-22.168 13.271-18.077 9.188C-17.703 8.813-16.92 8.908-16.585 9.244L-14.443 11.398-3.727 .684-11.497-7.087-27.293 8.715C-27.694 8.962-28.32 8.939-28.631 8.632L-32.47 4.861C-34.145 3.215-36.868 3.196-38.769 4.535L-19.733 23.619C-17.871 25.485-17.005 28.192-16.998 30.776L-16.964 42.753C-16.963 43.264-17.429 43.675-17.864 43.804L-28.764 47.048-39.823 43.754C-40.226 43.633-40.523 43.162-40.521 42.754L-40.461 29.847C-40.451 27.582-39.398 25.229-37.838 23.648L-32.169 17.9C-31.703 17.427-31.094 17.311-30.554 17.69-30.215 17.926-30.098 18.857-30.464 19.228L-36.509 25.36C-37.635 26.502-38.385 28.387-38.388 30.024L-38.409 41.99-28.748 44.859-19.055 41.959-19.104 30.588C-19.113 28.736-19.729 26.67-21.062 25.333L-35.367 10.985-39.647 10.981-41.602 12.915-39.99 14.51C-39.744 14.753-39.636 15.55-39.918 15.831L-46.483 22.386C-47.001 22.904-47.68 22.641-48.13 22.191L-64.816 5.497C-65.183 5.131-65.143 4.398-64.816 4.071L-58.346-2.403C-58.077-2.672-57.295-2.777-57.058-2.54L-55.268-.759-53.304-2.74-54.796-4.338C-55.744-5.665-55.75-7.369-54.977-8.742-54.262-10.016-52.868-10.792-51.227-10.782-51.282-13.32-49.323-15.214-46.871-15.036-47.053-17.483-45.16-19.444-42.62-19.391-42.63-21.081-41.799-22.515-40.457-23.209-39.062-23.93-37.238-23.986-36.069-22.88L-34.58-21.47-30.707-25.286C-29.626-26.35-27.851-26.375-26.481-25.819-25.244-25.316-24.363-24.196-24.091-22.599-21.549-23.17-19.319-21.546-18.959-19.096-16.502-19.69-14.352-18.248-13.86-15.891-11.735-16.707-9.625-15.759-8.667-13.918-7.717-12.093-8.342-9.907-10.072-8.546L-2.282-.754-.682-2.32C-.367-2.628 .369-2.668 .708-2.328L7.475 4.451C7.736 4.713 7.517 5.585 7.238 5.864" fill="#ffffff"/>
  <path transform="matrix(1,0,0,-1,476.4819,521.6824)" d="M0 0-3.322 3.29C-3.691 3.655-3.731 4.251-3.518 4.665-3.33 5.031-2.357 5.326-2.009 4.987L.638 2.406 6.295 8.062C6.64 8.408 7.391 8.382 7.69 8.103 8.063 7.755 8.102 7.144 7.899 6.628L1.337 .063C1.118-.104 .243-.241 0 0" fill="#ffffff"/>
</svg>
